# xmcd
#
# Track frame offsets: 
#        150
#        24890
#        50274
#        80437
#        134695
#        148717
#        178602
#        205155
#        233269
#        256022
#        276993
#
# Disc length: 4047 seconds
#
# Revision: 0
# Processed by: cddbd v1.5.1PL2 Copyright (c) Steve Scherf et al.
# Submitted via: ExactAudioCopy v0.95b4
#
DISCID=8e0fcd0b
DTITLE=Kevin Borich Express - One Night Jamm
DYEAR=1998
DGENRE=Blues -  Blues Rock
TTITLE0=Cainfield
TTITLE1=I Cant Wait
TTITLE2=High Temperature
TTITLE3=Rollin and Tumble
TTITLE4=Backlash Blues
TTITLE5=Grinding Wheels
TTITLE6=Hypocrite Heaven
TTITLE7=Funny Money Blues
TTITLE8=Back To Go Cool
TTITLE9=No Soul
TTITLE10=Got My Number
EXTD=with Wendy Saddington and Ross Wilson
EXTT0=
EXTT1=
EXTT2=
EXTT3=
EXTT4=
EXTT5=
EXTT6=
EXTT7=
EXTT8=
EXTT9=
EXTT10=
PLAYORDER=
